<?xml version="1.0" encoding="UTF-8" standalone="no" ?>
<!DOCTYPE svg PUBLIC "-//W3C//DTD SVG 1.1//EN" "http://www.w3.org/Graphics/SVG/1.1/DTD/svg11.dtd">
<svg xmlns="http://www.w3.org/2000/svg" xmlns:xlink="http://www.w3.org/1999/xlink" version="1.1" width="1910" height="893" viewBox="-284.7144456886898 0 1069.4288913773796 500" xml:space="preserve">
<desc>Created with Fabric.js 4.6.0</desc>
<defs>
</defs>
<g transform="matrix(-1 0 0 -1 250 250)" id="ftWKOOLju7amS_t1N7Zs-"  >
<g style="" vector-effect="non-scaling-stroke"   >
		<g transform="matrix(100 0 0 100 528.22 -409.73)" id="DjejTXLJYNJV8PzM_qJJJ"  >
<path style="stroke: none; stroke-width: 0; stroke-dasharray: none; stroke-linecap: butt; stroke-dashoffset: 0; stroke-linejoin: miter; stroke-miterlimit: 4; fill: rgb(27,90,238); fill-rule: nonzero; opacity: 0.4;" vector-effect="non-scaling-stroke"  transform=" translate(0, 0)" d="M 6.48445 0 C 6.48445 1.5375499999999998 6.731836219027941 2.111217640411236 5.963061219027941 3.4427749999999993 C 5.1942862190279415 4.774332359588763 4.573782359588764 4.846923429570003 3.242225000000001 5.615698429570003 C 1.910667640411238 6.3844734295700025 1.5375500000000002 6.885549999999999 4.2161833839345286e-16 6.885549999999999 C -1.5375499999999993 6.885549999999999 -1.910667640411235 6.384473429570003 -3.2422249999999986 5.615698429570004 C -4.573782359588762 4.846923429570004 -5.194286219027939 4.774332359588765 -5.9630612190279395 3.442775000000002 C -6.73183621902794 2.1112176404112386 -6.48445 1.5375500000000006 -6.48445 7.941160936731055e-16 C -6.48445 -1.537549999999999 -6.731836219027942 -2.111217640411234 -5.963061219027942 -3.442774999999998 C -5.194286219027942 -4.774332359588762 -4.5737823595887654 -4.84692342957 -3.2422250000000026 -5.615698429570001 C -1.9106676404112397 -6.384473429570002 -1.537550000000001 -6.885549999999999 -1.2648550151803586e-15 -6.885549999999999 C 1.5375499999999986 -6.885549999999999 1.9106676404112315 -6.384473429570004 3.2422249999999955 -5.615698429570005 C 4.573782359588759 -4.8469234295700065 5.194286219027939 -4.774332359588766 5.9630612190279395 -3.442775000000003 C 6.73183621902794 -2.1112176404112395 6.48445 -1.5375500000000013 6.48445 -1.588232187346211e-15" stroke-linecap="round" />
</g>
		<g transform="matrix(100 0 0 100 633.86 -491.67)" id="KQ7KbQAoslCDVOBB6GpQx"  >
<path style="stroke: none; stroke-width: 0; stroke-dasharray: none; stroke-linecap: butt; stroke-dashoffset: 0; stroke-linejoin: miter; stroke-miterlimit: 4; fill: rgb(0,123,250); fill-rule: nonzero; opacity: 0.4;" vector-effect="non-scaling-stroke"  transform=" translate(0, 0)" d="M 7.781339999999998 0 C 7.781339999999998 1.8450599999999995 8.078203462833528 2.5334611684934822 7.155673462833529 4.131329999999998 C 6.23314346283353 5.7291988315065145 5.488538831506516 5.816308115484002 3.89067 6.738838115484002 C 2.292801168493484 7.661368115484002 1.84506 8.262659999999999 5.059420060721433e-16 8.262659999999999 C -1.8450599999999988 8.262659999999999 -2.2928011684934813 7.661368115484002 -3.8906699999999974 6.738838115484003 C -5.488538831506514 5.816308115484004 -6.233143462833527 5.729198831506517 -7.155673462833527 4.131330000000002 C -8.078203462833528 2.5334611684934867 -7.781339999999998 1.8450600000000004 -7.781339999999998 9.529393124077263e-16 C -7.781339999999998 -1.8450599999999984 -8.078203462833528 -2.5334611684934805 -7.15567346283353 -4.131329999999997 C -6.233143462833532 -5.729198831506513 -5.488538831506518 -5.816308115484 -3.8906700000000027 -6.7388381154840005 C -2.2928011684934875 -7.6613681154840005 -1.845060000000001 -8.262659999999999 -1.51782601821643e-15 -8.262659999999999 C 1.845059999999998 -8.262659999999999 2.2928011684934773 -7.661368115484004 3.890669999999994 -6.738838115484006 C 5.48853883150651 -5.8163081154840075 6.233143462833526 -5.729198831506518 7.155673462833526 -4.131330000000003 C 8.078203462833526 -2.5334611684934876 7.7813399999999975 -1.8450600000000015 7.781339999999998 -1.9058786248154527e-15" stroke-linecap="round" />
</g>
		<g transform="matrix(100 0 0 100 887.41 -688.34)" id="7o1IJG5Wv4GIQNVUzw3vl"  >
<path style="stroke: none; stroke-width: 0; stroke-dasharray: none; stroke-linecap: butt; stroke-dashoffset: 0; stroke-linejoin: miter; stroke-miterlimit: 4; fill: rgb(0,153,255); fill-rule: nonzero; opacity: 0.4;" vector-effect="non-scaling-stroke"  transform=" translate(0, 0)" d="M 10.893875999999999 0 C 10.893875999999999 2.5830839999999995 11.30948484796694 3.5468456358908758 10.01794284796694 5.783861999999998 C 8.726400847966941 8.020878364109121 7.683954364109123 8.142831361677604 5.446938 9.434373361677604 C 3.2099216358908773 10.725915361677604 2.5830840000000004 11.567723999999998 7.083188085010007e-16 11.567723999999998 C -2.583083999999999 11.567723999999998 -3.209921635890874 10.725915361677604 -5.446937999999997 9.434373361677604 C -7.68395436410912 8.142831361677604 -8.72640084796694 8.020878364109125 -10.017942847966939 5.783862000000003 C -11.309484847966939 3.5468456358908806 -10.893875999999999 2.583084000000001 -10.893875999999999 1.3341150373708171e-15 C -10.893875999999999 -2.583083999999998 -11.309484847966942 -3.5468456358908727 -10.017942847966943 -5.783861999999996 C -8.726400847966943 -8.02087836410912 -7.683954364109125 -8.1428313616776 -5.446938000000004 -9.4343733616776 C -3.2099216358908826 -10.725915361677602 -2.5830840000000017 -11.567723999999998 -2.124956425503002e-15 -11.567723999999998 C 2.5830839999999973 -11.567723999999998 3.209921635890869 -10.725915361677606 5.446937999999992 -9.434373361677608 C 7.683954364109116 -8.14283136167761 8.726400847966936 -8.020878364109127 10.017942847966937 -5.7838620000000045 C 11.309484847966939 -3.5468456358908824 10.893875999999999 -2.583084000000002 10.893875999999999 -2.6682300747416342e-15" stroke-linecap="round" />
</g>
</g>
</g>
</svg>